# MagicaVoxel @ Ephtracy

# material
mtllib fire.mtl
usemtl palette

# normals
vn -1 0 0
vn 1 0 0
vn 0 0 1
vn 0 0 -1
vn 0 -1 0
vn 0 1 0

# texcoords
vt 0.373047 0.5
vt 0.986328 0.5

# verts
v -6 0 3
v -6 0 2
v -6 0 1
v -6 0 -1
v -6 0 -3
v -6 0 -4
v -6 1 3
v -6 1 2
v -6 1 1
v -6 1 -1
v -6 1 -3
v -6 1 -4
v -5 0 -4
v -5 0 -6
v -5 1 -4
v -5 1 -6
v -4 0 5
v -4 0 3
v -4 0 2
v -4 0 1
v -4 1 5
v -4 1 3
v -4 1 2
v -4 1 1
v -3 0 1
v -3 0 -0
v -3 0 -1
v -3 0 -3
v -3 1 1
v -3 1 -0
v -3 1 -1
v -3 1 -3
v -2 0 -0
v -2 0 -1
v -2 0 -5
v -2 0 -6
v -2 1 -0
v -2 1 -1
v -2 1 -5
v -2 1 -6
v -1 0 6
v -1 0 3
v -1 0 2
v -1 0 -0
v -1 0 -2
v -1 0 -4
v -1 0 -5
v -1 1 6
v -1 1 3
v -1 1 2
v -1 1 -0
v -1 1 -2
v -1 1 -4
v -1 1 -5
v 0 0 3
v 0 0 2
v 0 1 3
v 0 1 2
v 1 0 -4
v 1 0 -6
v 1 1 -4
v 1 1 -6
v 2 0 5
v 2 0 3
v 2 0 1
v 2 0 -0
v 2 0 -2
v 2 0 -3
v 2 1 5
v 2 1 3
v 2 1 1
v 2 1 -0
v 2 1 -2
v 2 1 -3
v 3 0 2
v 3 0 1
v 3 0 -1
v 3 0 -2
v 3 0 -3
v 3 0 -4
v 3 1 2
v 3 1 1
v 3 1 -1
v 3 1 -2
v 3 1 -3
v 3 1 -4
v 4 0 3
v 4 0 2
v 4 0 1
v 4 0 -1
v 4 0 -4
v 4 0 -5
v 4 1 3
v 4 1 2
v 4 1 1
v 4 1 -1
v 4 1 -4
v 4 1 -5
v 5 0 -2
v 5 0 -3
v 5 1 -2
v 5 1 -3
v -4 0 3
v -4 0 2
v -4 0 1
v -4 0 -1
v -4 0 -5
v -4 0 -6
v -4 1 3
v -4 1 2
v -4 1 1
v -4 1 -1
v -4 1 -5
v -4 1 -6
v -3 0 5
v -3 0 4
v -3 0 2
v -3 0 1
v -3 0 -3
v -3 0 -5
v -3 1 5
v -3 1 4
v -3 1 2
v -3 1 1
v -3 1 -3
v -3 1 -5
v -2 0 4
v -2 0 3
v -2 0 1
v -2 0 -0
v -2 0 -2
v -2 0 -3
v -2 1 4
v -2 1 3
v -2 1 1
v -2 1 -0
v -2 1 -2
v -2 1 -3
v 0 0 6
v 0 0 5
v 0 0 2
v 0 0 1
v 0 0 -3
v 0 0 -4
v 0 0 -6
v 0 1 6
v 0 1 5
v 0 1 2
v 0 1 1
v 0 1 -3
v 0 1 -4
v 0 1 -6
v 1 0 5
v 1 0 3
v 1 0 2
v 1 0 1
v 1 0 -0
v 1 0 -2
v 1 0 -3
v 1 1 5
v 1 1 3
v 1 1 2
v 1 1 1
v 1 1 -0
v 1 1 -2
v 1 1 -3
v 2 0 -0
v 2 0 -2
v 2 1 -0
v 2 1 -2
v 3 0 1
v 3 0 -0
v 3 0 -2
v 3 0 -3
v 3 0 -4
v 3 0 -6
v 3 1 1
v 3 1 -0
v 3 1 -2
v 3 1 -3
v 3 1 -4
v 3 1 -6
v 4 0 5
v 4 0 3
v 4 1 5
v 4 1 3
v 5 0 3
v 5 0 2
v 5 0 -0
v 5 0 -1
v 5 0 -3
v 5 0 -4
v 5 1 3
v 5 1 2
v 5 1 -0
v 5 1 -1
v 5 1 -3
v 5 1 -4
v 6 0 2
v 6 0 -0
v 6 0 -1
v 6 0 -3
v 6 0 -4
v 6 0 -5
v 6 1 2
v 6 1 -0
v 6 1 -1
v 6 1 -3
v 6 1 -4
v 6 1 -5
v -1 0 6
v -1 1 6
v 0 0 6
v 0 1 6
v -4 0 5
v -4 1 5
v -3 0 5
v -3 1 5
v 0 0 5
v 0 1 5
v 1 0 5
v 1 1 5
v 2 0 5
v 2 1 5
v 4 0 5
v 4 1 5
v -3 0 4
v -3 1 4
v -2 0 4
v -2 1 4
v -6 0 3
v -6 1 3
v -4 0 3
v -4 1 3
v 4 0 3
v 4 1 3
v 5 0 3
v 5 1 3
v -4 0 2
v -4 1 2
v -3 0 2
v -3 1 2
v -1 0 2
v -1 1 2
v 0 0 2
v 0 1 2
v 3 0 2
v 3 1 2
v 4 0 2
v 4 1 2
v 5 0 2
v 5 1 2
v 6 0 2
v 6 1 2
v -6 0 1
v -6 1 1
v -4 0 1
v -4 1 1
v -3 0 1
v -3 1 1
v -2 0 1
v -2 1 1
v 0 0 1
v 0 1 1
v 1 0 1
v 1 1 1
v 2 0 1
v 2 1 1
v 3 0 1
v 3 1 1
v -2 0 -0
v -2 1 -0
v -1 0 -0
v -1 1 -0
v 1 0 -0
v 1 1 -0
v 2 0 -0
v 2 1 -0
v -3 0 -1
v -3 1 -1
v -2 0 -1
v -2 1 -1
v 3 0 -1
v 3 1 -1
v 4 0 -1
v 4 1 -1
v 5 0 -1
v 5 1 -1
v 6 0 -1
v 6 1 -1
v 2 0 -2
v 2 1 -2
v 3 0 -2
v 3 1 -2
v -6 0 -3
v -6 1 -3
v -3 0 -3
v -3 1 -3
v 3 0 -3
v 3 1 -3
v 4 0 -3
v 4 1 -3
v 5 0 -3
v 5 1 -3
v 1 0 -4
v 1 1 -4
v 3 0 -4
v 3 1 -4
v 5 0 -4
v 5 1 -4
v 6 0 -4
v 6 1 -4
v -2 0 -5
v -2 1 -5
v -1 0 -5
v -1 1 -5
v -4 0 3
v -4 1 3
v -2 0 3
v -2 1 3
v -1 0 3
v -1 1 3
v 0 0 3
v 0 1 3
v 2 0 3
v 2 1 3
v 4 0 3
v 4 1 3
v -6 0 2
v -6 1 2
v -4 0 2
v -4 1 2
v 0 0 2
v 0 1 2
v 1 0 2
v 1 1 2
v -4 0 1
v -4 1 1
v -3 0 1
v -3 1 1
v 3 0 1
v 3 1 1
v 4 0 1
v 4 1 1
v -3 0 -0
v -3 1 -0
v -2 0 -0
v -2 1 -0
v 2 0 -0
v 2 1 -0
v 3 0 -0
v 3 1 -0
v 5 0 -0
v 5 1 -0
v 6 0 -0
v 6 1 -0
v -6 0 -1
v -6 1 -1
v -4 0 -1
v -4 1 -1
v -2 0 -2
v -2 1 -2
v -1 0 -2
v -1 1 -2
v 1 0 -2
v 1 1 -2
v 2 0 -2
v 2 1 -2
v 3 0 -2
v 3 1 -2
v 5 0 -2
v 5 1 -2
v -3 0 -3
v -3 1 -3
v -2 0 -3
v -2 1 -3
v 0 0 -3
v 0 1 -3
v 1 0 -3
v 1 1 -3
v 2 0 -3
v 2 1 -3
v 3 0 -3
v 3 1 -3
v 5 0 -3
v 5 1 -3
v 6 0 -3
v 6 1 -3
v -6 0 -4
v -6 1 -4
v -5 0 -4
v -5 1 -4
v 3 0 -4
v 3 1 -4
v 4 0 -4
v 4 1 -4
v -4 0 -5
v -4 1 -5
v -3 0 -5
v -3 1 -5
v 4 0 -5
v 4 1 -5
v 6 0 -5
v 6 1 -5
v -5 0 -6
v -5 1 -6
v -4 0 -6
v -4 1 -6
v -2 0 -6
v -2 1 -6
v 0 0 -6
v 0 1 -6
v 1 0 -6
v 1 1 -6
v 3 0 -6
v 3 1 -6
v -1 0 6
v 0 0 6
v -4 0 5
v -3 0 5
v 0 0 5
v 1 0 5
v 2 0 5
v 4 0 5
v -3 0 4
v -2 0 4
v -6 0 3
v -4 0 3
v -2 0 3
v -1 0 3
v 0 0 3
v 1 0 3
v 2 0 3
v 4 0 3
v 5 0 3
v -6 0 2
v -4 0 2
v -3 0 2
v -1 0 2
v 0 0 2
v 1 0 2
v 3 0 2
v 4 0 2
v 5 0 2
v 6 0 2
v -6 0 1
v -4 0 1
v -3 0 1
v -2 0 1
v 0 0 1
v 1 0 1
v 2 0 1
v 3 0 1
v 4 0 1
v -3 0 -0
v -2 0 -0
v -1 0 -0
v 1 0 -0
v 2 0 -0
v 3 0 -0
v 5 0 -0
v 6 0 -0
v -6 0 -1
v -4 0 -1
v -3 0 -1
v -2 0 -1
v 3 0 -1
v 4 0 -1
v 5 0 -1
v 6 0 -1
v -2 0 -2
v -1 0 -2
v 1 0 -2
v 2 0 -2
v 3 0 -2
v 5 0 -2
v -6 0 -3
v -3 0 -3
v -2 0 -3
v 0 0 -3
v 1 0 -3
v 2 0 -3
v 3 0 -3
v 4 0 -3
v 5 0 -3
v 6 0 -3
v -6 0 -4
v -5 0 -4
v -1 0 -4
v 0 0 -4
v 1 0 -4
v 3 0 -4
v 4 0 -4
v 5 0 -4
v 6 0 -4
v -4 0 -5
v -3 0 -5
v -2 0 -5
v -1 0 -5
v 4 0 -5
v 6 0 -5
v -5 0 -6
v -4 0 -6
v -2 0 -6
v 0 0 -6
v 1 0 -6
v 3 0 -6
v -1 1 6
v 0 1 6
v -4 1 5
v -3 1 5
v 0 1 5
v 1 1 5
v 2 1 5
v 4 1 5
v -3 1 4
v -2 1 4
v -6 1 3
v -4 1 3
v -2 1 3
v -1 1 3
v 0 1 3
v 1 1 3
v 2 1 3
v 4 1 3
v 5 1 3
v -6 1 2
v -4 1 2
v -3 1 2
v -1 1 2
v 0 1 2
v 1 1 2
v 3 1 2
v 4 1 2
v 5 1 2
v 6 1 2
v -6 1 1
v -4 1 1
v -3 1 1
v -2 1 1
v 0 1 1
v 1 1 1
v 2 1 1
v 3 1 1
v 4 1 1
v -3 1 -0
v -2 1 -0
v -1 1 -0
v 1 1 -0
v 2 1 -0
v 3 1 -0
v 5 1 -0
v 6 1 -0
v -6 1 -1
v -4 1 -1
v -3 1 -1
v -2 1 -1
v 3 1 -1
v 4 1 -1
v 5 1 -1
v 6 1 -1
v -2 1 -2
v -1 1 -2
v 1 1 -2
v 2 1 -2
v 3 1 -2
v 5 1 -2
v -6 1 -3
v -3 1 -3
v -2 1 -3
v 0 1 -3
v 1 1 -3
v 2 1 -3
v 3 1 -3
v 4 1 -3
v 5 1 -3
v 6 1 -3
v -6 1 -4
v -5 1 -4
v -1 1 -4
v 0 1 -4
v 1 1 -4
v 3 1 -4
v 4 1 -4
v 5 1 -4
v 6 1 -4
v -4 1 -5
v -3 1 -5
v -2 1 -5
v -1 1 -5
v 4 1 -5
v 6 1 -5
v -5 1 -6
v -4 1 -6
v -2 1 -6
v 0 1 -6
v 1 1 -6
v 3 1 -6

# faces
f 7/2/1 2/2/1 1/2/1
f 8/2/1 2/2/1 7/2/1
f 9/2/1 4/2/1 3/2/1
f 10/2/1 4/2/1 9/2/1
f 11/2/1 6/2/1 5/2/1
f 12/2/1 6/2/1 11/2/1
f 15/2/1 14/2/1 13/2/1
f 16/2/1 14/2/1 15/2/1
f 21/2/1 18/2/1 17/2/1
f 22/2/1 18/2/1 21/2/1
f 23/1/1 20/1/1 19/1/1
f 24/1/1 20/1/1 23/1/1
f 29/1/1 26/1/1 25/1/1
f 30/1/1 26/1/1 29/1/1
f 31/1/1 28/1/1 27/1/1
f 32/1/1 28/1/1 31/1/1
f 37/1/1 34/1/1 33/1/1
f 38/1/1 34/1/1 37/1/1
f 39/2/1 36/2/1 35/2/1
f 40/2/1 36/2/1 39/2/1
f 48/2/1 42/2/1 41/2/1
f 49/2/1 42/2/1 48/2/1
f 50/1/1 44/1/1 43/1/1
f 51/1/1 44/1/1 50/1/1
f 52/1/1 46/1/1 45/1/1
f 53/2/1 47/2/1 46/2/1
f 53/1/1 46/1/1 52/1/1
f 54/2/1 47/2/1 53/2/1
f 57/1/1 56/1/1 55/1/1
f 58/1/1 56/1/1 57/1/1
f 61/2/1 60/2/1 59/2/1
f 62/2/1 60/2/1 61/2/1
f 69/2/1 64/2/1 63/2/1
f 70/2/1 64/2/1 69/2/1
f 71/1/1 66/1/1 65/1/1
f 72/1/1 66/1/1 71/1/1
f 73/1/1 68/1/1 67/1/1
f 74/1/1 68/1/1 73/1/1
f 81/1/1 76/1/1 75/1/1
f 82/1/1 76/1/1 81/1/1
f 83/2/1 78/2/1 77/2/1
f 84/2/1 78/2/1 83/2/1
f 85/1/1 80/1/1 79/1/1
f 86/1/1 80/1/1 85/1/1
f 93/2/1 88/2/1 87/2/1
f 94/2/1 88/2/1 93/2/1
f 95/2/1 90/2/1 89/2/1
f 96/2/1 90/2/1 95/2/1
f 97/2/1 92/2/1 91/2/1
f 98/2/1 92/2/1 97/2/1
f 101/2/1 100/2/1 99/2/1
f 102/2/1 100/2/1 101/2/1
f 103/2/2 104/2/2 109/2/2
f 109/2/2 104/2/2 110/2/2
f 105/2/2 106/2/2 111/2/2
f 111/2/2 106/2/2 112/2/2
f 107/2/2 108/2/2 113/2/2
f 113/2/2 108/2/2 114/2/2
f 115/2/2 116/2/2 121/2/2
f 121/2/2 116/2/2 122/2/2
f 117/1/2 118/1/2 123/1/2
f 123/1/2 118/1/2 124/1/2
f 119/2/2 120/2/2 125/2/2
f 125/2/2 120/2/2 126/2/2
f 127/2/2 128/2/2 133/2/2
f 133/2/2 128/2/2 134/2/2
f 129/1/2 130/1/2 135/1/2
f 135/1/2 130/1/2 136/1/2
f 131/1/2 132/1/2 137/1/2
f 137/1/2 132/1/2 138/1/2
f 139/2/2 140/2/2 146/2/2
f 146/2/2 140/2/2 147/2/2
f 141/1/2 142/1/2 148/1/2
f 148/1/2 142/1/2 149/1/2
f 143/1/2 144/1/2 150/1/2
f 144/2/2 145/2/2 151/2/2
f 150/1/2 144/1/2 151/1/2
f 151/2/2 145/2/2 152/2/2
f 153/2/2 154/2/2 160/2/2
f 154/1/2 155/1/2 161/1/2
f 160/2/2 154/2/2 161/2/2
f 161/1/2 155/1/2 162/1/2
f 156/1/2 157/1/2 163/1/2
f 163/1/2 157/1/2 164/1/2
f 158/1/2 159/1/2 165/1/2
f 165/1/2 159/1/2 166/1/2
f 167/1/2 168/1/2 169/1/2
f 169/1/2 168/1/2 170/1/2
f 171/1/2 172/1/2 177/1/2
f 177/1/2 172/1/2 178/1/2
f 173/1/2 174/1/2 179/1/2
f 179/1/2 174/1/2 180/1/2
f 175/2/2 176/2/2 181/2/2
f 181/2/2 176/2/2 182/2/2
f 183/2/2 184/2/2 185/2/2
f 185/2/2 184/2/2 186/2/2
f 187/2/2 188/2/2 193/2/2
f 193/2/2 188/2/2 194/2/2
f 189/2/2 190/2/2 195/2/2
f 195/2/2 190/2/2 196/2/2
f 191/2/2 192/2/2 197/2/2
f 197/2/2 192/2/2 198/2/2
f 199/2/2 200/2/2 205/2/2
f 205/2/2 200/2/2 206/2/2
f 201/2/2 202/2/2 207/2/2
f 207/2/2 202/2/2 208/2/2
f 203/2/2 204/2/2 209/2/2
f 209/2/2 204/2/2 210/2/2
f 213/2/3 212/2/3 211/2/3
f 214/2/3 212/2/3 213/2/3
f 217/2/3 216/2/3 215/2/3
f 218/2/3 216/2/3 217/2/3
f 221/2/3 220/2/3 219/2/3
f 222/2/3 220/2/3 221/2/3
f 225/2/3 224/2/3 223/2/3
f 226/2/3 224/2/3 225/2/3
f 229/2/3 228/2/3 227/2/3
f 230/2/3 228/2/3 229/2/3
f 233/2/3 232/2/3 231/2/3
f 234/2/3 232/2/3 233/2/3
f 237/2/3 236/2/3 235/2/3
f 238/2/3 236/2/3 237/2/3
f 241/1/3 240/1/3 239/1/3
f 242/1/3 240/1/3 241/1/3
f 245/1/3 244/1/3 243/1/3
f 246/1/3 244/1/3 245/1/3
f 249/1/3 248/1/3 247/1/3
f 250/1/3 248/1/3 249/1/3
f 253/2/3 252/2/3 251/2/3
f 254/2/3 252/2/3 253/2/3
f 257/2/3 256/2/3 255/2/3
f 258/2/3 256/2/3 257/2/3
f 261/1/3 260/1/3 259/1/3
f 262/1/3 260/1/3 261/1/3
f 265/1/3 264/1/3 263/1/3
f 266/1/3 264/1/3 265/1/3
f 269/1/3 268/1/3 267/1/3
f 270/1/3 268/1/3 269/1/3
f 273/1/3 272/1/3 271/1/3
f 274/1/3 272/1/3 273/1/3
f 277/1/3 276/1/3 275/1/3
f 278/1/3 276/1/3 277/1/3
f 281/1/3 280/1/3 279/1/3
f 282/1/3 280/1/3 281/1/3
f 285/2/3 284/2/3 283/2/3
f 286/2/3 284/2/3 285/2/3
f 289/2/3 288/2/3 287/2/3
f 290/2/3 288/2/3 289/2/3
f 293/1/3 292/1/3 291/1/3
f 294/1/3 292/1/3 293/1/3
f 297/2/3 296/2/3 295/2/3
f 298/2/3 296/2/3 297/2/3
f 301/1/3 300/1/3 299/1/3
f 302/1/3 300/1/3 301/1/3
f 303/2/3 302/2/3 301/2/3
f 304/2/3 302/2/3 303/2/3
f 307/2/3 306/2/3 305/2/3
f 308/2/3 306/2/3 307/2/3
f 311/2/3 310/2/3 309/2/3
f 312/2/3 310/2/3 311/2/3
f 315/2/3 314/2/3 313/2/3
f 316/2/3 314/2/3 315/2/3
f 317/2/4 318/2/4 319/2/4
f 319/2/4 318/2/4 320/2/4
f 321/2/4 322/2/4 323/2/4
f 323/2/4 322/2/4 324/2/4
f 325/2/4 326/2/4 327/2/4
f 327/2/4 326/2/4 328/2/4
f 329/2/4 330/2/4 331/2/4
f 331/2/4 330/2/4 332/2/4
f 333/1/4 334/1/4 335/1/4
f 335/1/4 334/1/4 336/1/4
f 337/1/4 338/1/4 339/1/4
f 339/1/4 338/1/4 340/1/4
f 341/1/4 342/1/4 343/1/4
f 343/1/4 342/1/4 344/1/4
f 345/1/4 346/1/4 347/1/4
f 347/1/4 346/1/4 348/1/4
f 349/1/4 350/1/4 351/1/4
f 351/1/4 350/1/4 352/1/4
f 353/2/4 354/2/4 355/2/4
f 355/2/4 354/2/4 356/2/4
f 357/2/4 358/2/4 359/2/4
f 359/2/4 358/2/4 360/2/4
f 361/1/4 362/1/4 363/1/4
f 363/1/4 362/1/4 364/1/4
f 365/1/4 366/1/4 367/1/4
f 367/1/4 366/1/4 368/1/4
f 369/2/4 370/2/4 371/2/4
f 371/2/4 370/2/4 372/2/4
f 373/1/4 374/1/4 375/1/4
f 375/1/4 374/1/4 376/1/4
f 377/1/4 378/1/4 379/1/4
f 379/1/4 378/1/4 380/1/4
f 381/1/4 382/1/4 383/1/4
f 383/1/4 382/1/4 384/1/4
f 385/2/4 386/2/4 387/2/4
f 387/2/4 386/2/4 388/2/4
f 389/2/4 390/2/4 391/2/4
f 391/2/4 390/2/4 392/2/4
f 393/1/4 394/1/4 395/1/4
f 395/1/4 394/1/4 396/1/4
f 397/2/4 398/2/4 399/2/4
f 399/2/4 398/2/4 400/2/4
f 401/2/4 402/2/4 403/2/4
f 403/2/4 402/2/4 404/2/4
f 405/2/4 406/2/4 407/2/4
f 407/2/4 406/2/4 408/2/4
f 409/2/4 410/2/4 411/2/4
f 411/2/4 410/2/4 412/2/4
f 413/2/4 414/2/4 415/2/4
f 415/2/4 414/2/4 416/2/4
f 421/2/5 418/2/5 417/2/5
f 425/2/5 420/2/5 419/2/5
f 428/2/5 425/2/5 419/2/5
f 428/2/5 426/2/5 425/2/5
f 429/2/5 426/2/5 428/2/5
f 430/2/5 421/2/5 417/2/5
f 430/2/5 422/2/5 421/2/5
f 431/2/5 422/2/5 430/2/5
f 432/2/5 422/2/5 431/2/5
f 433/2/5 424/2/5 423/2/5
f 434/2/5 424/2/5 433/2/5
f 436/2/5 428/2/5 427/2/5
f 437/2/5 428/2/5 436/2/5
f 440/1/5 432/1/5 431/1/5
f 441/1/5 432/1/5 440/1/5
f 443/2/5 435/2/5 434/2/5
f 444/2/5 435/2/5 443/2/5
f 447/1/5 438/1/5 437/1/5
f 448/1/5 438/1/5 447/1/5
f 450/1/5 440/1/5 439/1/5
f 453/1/5 443/1/5 442/1/5
f 454/2/5 445/2/5 444/2/5
f 454/2/5 444/2/5 443/2/5
f 454/1/5 443/1/5 453/1/5
f 455/1/5 449/1/5 448/1/5
f 456/1/5 449/1/5 455/1/5
f 457/1/5 451/1/5 450/1/5
f 457/1/5 450/1/5 439/1/5
f 458/1/5 451/1/5 457/1/5
f 459/1/5 453/1/5 452/1/5
f 460/1/5 453/1/5 459/1/5
f 461/2/5 445/2/5 454/2/5
f 462/2/5 445/2/5 461/2/5
f 463/2/5 447/2/5 446/2/5
f 464/2/5 447/2/5 463/2/5
f 466/1/5 458/1/5 457/1/5
f 466/1/5 459/1/5 458/1/5
f 466/1/5 457/1/5 456/1/5
f 468/2/5 461/2/5 454/2/5
f 469/2/5 461/2/5 468/2/5
f 471/1/5 466/1/5 465/1/5
f 471/1/5 459/1/5 466/1/5
f 472/1/5 459/1/5 471/1/5
f 473/1/5 459/1/5 472/1/5
f 474/1/5 459/1/5 473/1/5
f 475/2/5 470/2/5 469/2/5
f 475/2/5 469/2/5 468/2/5
f 475/2/5 468/2/5 467/2/5
f 476/2/5 470/2/5 475/2/5
f 478/1/5 471/1/5 465/1/5
f 479/1/5 471/1/5 478/1/5
f 480/1/5 473/1/5 472/1/5
f 481/1/5 473/1/5 480/1/5
f 482/1/5 475/1/5 474/1/5
f 483/1/5 475/1/5 482/1/5
f 485/2/5 470/2/5 476/2/5
f 486/2/5 470/2/5 485/2/5
f 487/2/5 478/2/5 477/2/5
f 488/2/5 478/2/5 487/2/5
f 489/1/5 480/1/5 472/1/5
f 490/1/5 480/1/5 489/1/5
f 492/1/5 484/1/5 483/1/5
f 493/2/5 485/2/5 484/2/5
f 493/1/5 484/1/5 492/1/5
f 494/2/5 485/2/5 493/2/5
f 496/2/5 478/2/5 488/2/5
f 497/2/5 478/2/5 496/2/5
f 499/2/5 490/2/5 489/2/5
f 500/2/5 495/2/5 494/2/5
f 500/2/5 494/2/5 493/2/5
f 501/2/5 495/2/5 500/2/5
f 502/2/5 496/2/5 488/2/5
f 503/2/5 496/2/5 502/2/5
f 504/2/5 499/2/5 498/2/5
f 505/2/5 490/2/5 499/2/5
f 505/2/5 499/2/5 504/2/5
f 506/2/5 492/2/5 491/2/5
f 507/2/5 492/2/5 506/2/5
f 508/2/6 509/2/6 512/2/6
f 510/2/6 511/2/6 516/2/6
f 510/2/6 516/2/6 519/2/6
f 516/2/6 517/2/6 519/2/6
f 519/2/6 517/2/6 520/2/6
f 508/2/6 512/2/6 521/2/6
f 512/2/6 513/2/6 521/2/6
f 521/2/6 513/2/6 522/2/6
f 522/2/6 513/2/6 523/2/6
f 514/2/6 515/2/6 524/2/6
f 524/2/6 515/2/6 525/2/6
f 518/2/6 519/2/6 527/2/6
f 527/2/6 519/2/6 528/2/6
f 522/1/6 523/1/6 531/1/6
f 531/1/6 523/1/6 532/1/6
f 525/2/6 526/2/6 534/2/6
f 534/2/6 526/2/6 535/2/6
f 528/1/6 529/1/6 538/1/6
f 538/1/6 529/1/6 539/1/6
f 530/1/6 531/1/6 541/1/6
f 533/1/6 534/1/6 544/1/6
f 535/2/6 536/2/6 545/2/6
f 534/2/6 535/2/6 545/2/6
f 544/1/6 534/1/6 545/1/6
f 539/1/6 540/1/6 546/1/6
f 546/1/6 540/1/6 547/1/6
f 541/1/6 542/1/6 548/1/6
f 530/1/6 541/1/6 548/1/6
f 548/1/6 542/1/6 549/1/6
f 543/1/6 544/1/6 550/1/6
f 550/1/6 544/1/6 551/1/6
f 545/2/6 536/2/6 552/2/6
f 552/2/6 536/2/6 553/2/6
f 537/2/6 538/2/6 554/2/6
f 554/2/6 538/2/6 555/2/6
f 548/1/6 549/1/6 557/1/6
f 549/1/6 550/1/6 557/1/6
f 547/1/6 548/1/6 557/1/6
f 545/2/6 552/2/6 559/2/6
f 559/2/6 552/2/6 560/2/6
f 556/1/6 557/1/6 562/1/6
f 557/1/6 550/1/6 562/1/6
f 562/1/6 550/1/6 563/1/6
f 563/1/6 550/1/6 564/1/6
f 564/1/6 550/1/6 565/1/6
f 560/2/6 561/2/6 566/2/6
f 559/2/6 560/2/6 566/2/6
f 558/2/6 559/2/6 566/2/6
f 566/2/6 561/2/6 567/2/6
f 556/1/6 562/1/6 569/1/6
f 569/1/6 562/1/6 570/1/6
f 563/1/6 564/1/6 571/1/6
f 571/1/6 564/1/6 572/1/6
f 565/1/6 566/1/6 573/1/6
f 573/1/6 566/1/6 574/1/6
f 567/2/6 561/2/6 576/2/6
f 576/2/6 561/2/6 577/2/6
f 568/2/6 569/2/6 578/2/6
f 578/2/6 569/2/6 579/2/6
f 563/1/6 571/1/6 580/1/6
f 580/1/6 571/1/6 581/1/6
f 574/1/6 575/1/6 583/1/6
f 575/2/6 576/2/6 584/2/6
f 583/1/6 575/1/6 584/1/6
f 584/2/6 576/2/6 585/2/6
f 579/2/6 569/2/6 587/2/6
f 587/2/6 569/2/6 588/2/6
f 580/2/6 581/2/6 590/2/6
f 585/2/6 586/2/6 591/2/6
f 584/2/6 585/2/6 591/2/6
f 591/2/6 586/2/6 592/2/6
f 579/2/6 587/2/6 593/2/6
f 593/2/6 587/2/6 594/2/6
f 589/2/6 590/2/6 595/2/6
f 590/2/6 581/2/6 596/2/6
f 595/2/6 590/2/6 596/2/6
f 582/2/6 583/2/6 597/2/6
f 597/2/6 583/2/6 598/2/6
