# MagicaVoxel @ Ephtracy

# material
mtllib man.mtl
usemtl palette

# normals
vn -1 0 0
vn 1 0 0
vn 0 0 1
vn 0 0 -1
vn 0 -1 0
vn 0 1 0

# texcoords
vt 0.0332031 0.5
vt 0.248047 0.5
vt 0.759766 0.5
vt 0.802734 0.5
vt 0.810547 0.5
vt 0.873047 0.5
vt 0.986328 0.5
vt 0.990234 0.5
vt 0.994141 0.5

# verts
v -4 2 0.5
v -4 2 -0.5
v -4 3 0.5
v -4 3 -0.5
v -4 6 0.5
v -4 6 -0.5
v -4 7 0.5
v -4 7 -0.5
v -4 9 0.5
v -4 9 -0.5
v -3 1 1.5
v -3 1 -1.5
v -3 2 1.5
v -3 2 0.5
v -3 2 -0.5
v -3 2 -1.5
v -3 3 1.5
v -3 3 0.5
v -3 3 -0.5
v -3 3 -1.5
v -3 6 1.5
v -3 6 0.5
v -3 6 -0.5
v -3 6 -1.5
v -3 7 2.5
v -3 7 1.5
v -3 7 0.5
v -3 7 -0.5
v -3 9 2.5
v -3 9 1.5
v -3 9 0.5
v -3 9 -0.5
v -3 10 1.5
v -3 10 -1.5
v -2 0 0.5
v -2 0 -0.5
v -2 1 0.5
v -2 1 -0.5
v -2 2 2.5
v -2 2 1.5
v -2 2 -1.5
v -2 2 -2.5
v -2 3 2.5
v -2 3 1.5
v -2 3 -1.5
v -2 3 -2.5
v -2 6 2.5
v -2 6 1.5
v -2 6 -1.5
v -2 6 -2.5
v -2 7 2.5
v -2 7 1.5
v -2 9 2.5
v -2 9 1.5
v -2 10 2.5
v -2 10 1.5
v -2 10 -1.5
v -2 11 1.5
v -2 11 -2.5
v 1 0 0.5
v 1 0 -0.5
v 1 1 1.5
v 1 1 0.5
v 1 1 -0.5
v 1 1 -1.5
v 1 2 1.5
v 1 2 -1.5
v -1 0 0.5
v -1 0 -0.5
v -1 1 1.5
v -1 1 0.5
v -1 1 -0.5
v -1 1 -1.5
v -1 2 1.5
v -1 2 -1.5
v 2 0 0.5
v 2 0 -0.5
v 2 1 0.5
v 2 1 -0.5
v 2 2 2.5
v 2 2 1.5
v 2 2 -1.5
v 2 2 -2.5
v 2 3 2.5
v 2 3 1.5
v 2 3 -1.5
v 2 3 -2.5
v 2 6 2.5
v 2 6 1.5
v 2 6 -1.5
v 2 6 -2.5
v 2 7 2.5
v 2 7 1.5
v 2 9 2.5
v 2 9 1.5
v 2 10 2.5
v 2 10 1.5
v 2 10 -1.5
v 2 11 1.5
v 2 11 -2.5
v 3 1 1.5
v 3 1 -1.5
v 3 2 1.5
v 3 2 0.5
v 3 2 -0.5
v 3 2 -1.5
v 3 3 1.5
v 3 3 0.5
v 3 3 -0.5
v 3 3 -1.5
v 3 6 1.5
v 3 6 0.5
v 3 6 -0.5
v 3 6 -1.5
v 3 7 2.5
v 3 7 1.5
v 3 7 0.5
v 3 7 -0.5
v 3 9 2.5
v 3 9 1.5
v 3 9 0.5
v 3 9 -0.5
v 3 10 1.5
v 3 10 -1.5
v 4 2 0.5
v 4 2 -0.5
v 4 3 0.5
v 4 3 -0.5
v 4 6 0.5
v 4 6 -0.5
v 4 7 0.5
v 4 7 -0.5
v 4 9 0.5
v 4 9 -0.5
v -3 7 2.5
v -3 9 2.5
v -2 2 2.5
v -2 3 2.5
v -2 6 2.5
v -2 7 2.5
v -2 8 2.5
v -2 9 2.5
v -2 10 2.5
v -1 6 2.5
v -1 7 2.5
v -1 8 2.5
v -1 9 2.5
v 0 3 2.5
v 0 6 2.5
v 1 3 2.5
v 1 6 2.5
v 1 7 2.5
v 1 8 2.5
v 1 9 2.5
v 2 2 2.5
v 2 3 2.5
v 2 6 2.5
v 2 7 2.5
v 2 8 2.5
v 2 9 2.5
v 2 10 2.5
v 3 7 2.5
v 3 9 2.5
v -3 1 1.5
v -3 2 1.5
v -3 3 1.5
v -3 6 1.5
v -3 7 1.5
v -3 9 1.5
v -3 10 1.5
v -2 2 1.5
v -2 3 1.5
v -2 6 1.5
v -2 7 1.5
v -2 9 1.5
v -2 10 1.5
v -2 11 1.5
v -1 1 1.5
v -1 2 1.5
v 1 1 1.5
v 1 2 1.5
v 2 2 1.5
v 2 3 1.5
v 2 6 1.5
v 2 7 1.5
v 2 9 1.5
v 2 10 1.5
v 2 11 1.5
v 3 1 1.5
v 3 2 1.5
v 3 3 1.5
v 3 6 1.5
v 3 7 1.5
v 3 9 1.5
v 3 10 1.5
v -4 2 0.5
v -4 3 0.5
v -4 6 0.5
v -4 7 0.5
v -4 9 0.5
v -3 2 0.5
v -3 3 0.5
v -3 6 0.5
v -3 7 0.5
v -3 9 0.5
v -2 0 0.5
v -2 1 0.5
v -1 0 0.5
v -1 1 0.5
v 1 0 0.5
v 1 1 0.5
v 2 0 0.5
v 2 1 0.5
v 3 2 0.5
v 3 3 0.5
v 3 6 0.5
v 3 7 0.5
v 3 9 0.5
v 4 2 0.5
v 4 3 0.5
v 4 6 0.5
v 4 7 0.5
v 4 9 0.5
v -4 2 -0.5
v -4 3 -0.5
v -4 6 -0.5
v -4 7 -0.5
v -4 9 -0.5
v -3 2 -0.5
v -3 3 -0.5
v -3 6 -0.5
v -3 7 -0.5
v -3 9 -0.5
v -2 0 -0.5
v -2 1 -0.5
v -1 0 -0.5
v -1 1 -0.5
v 1 0 -0.5
v 1 1 -0.5
v 2 0 -0.5
v 2 1 -0.5
v 3 2 -0.5
v 3 3 -0.5
v 3 6 -0.5
v 3 7 -0.5
v 3 9 -0.5
v 4 2 -0.5
v 4 3 -0.5
v 4 6 -0.5
v 4 7 -0.5
v 4 9 -0.5
v -3 1 -1.5
v -3 2 -1.5
v -3 3 -1.5
v -3 6 -1.5
v -3 10 -1.5
v -2 2 -1.5
v -2 3 -1.5
v -2 6 -1.5
v -2 10 -1.5
v -1 1 -1.5
v -1 2 -1.5
v 1 1 -1.5
v 1 2 -1.5
v 2 2 -1.5
v 2 3 -1.5
v 2 6 -1.5
v 2 10 -1.5
v 3 1 -1.5
v 3 2 -1.5
v 3 3 -1.5
v 3 6 -1.5
v 3 10 -1.5
v -2 2 -2.5
v -2 3 -2.5
v -2 6 -2.5
v -2 11 -2.5
v 2 2 -2.5
v 2 3 -2.5
v 2 6 -2.5
v 2 11 -2.5
v -2 0 0.5
v -1 0 0.5
v 1 0 0.5
v 2 0 0.5
v -2 0 -0.5
v -1 0 -0.5
v 1 0 -0.5
v 2 0 -0.5
v -3 1 1.5
v -1 1 1.5
v 1 1 1.5
v 3 1 1.5
v -2 1 0.5
v -1 1 0.5
v 1 1 0.5
v 2 1 0.5
v -2 1 -0.5
v -1 1 -0.5
v 1 1 -0.5
v 2 1 -0.5
v -3 1 -1.5
v -1 1 -1.5
v 1 1 -1.5
v 3 1 -1.5
v -2 2 2.5
v 2 2 2.5
v -2 2 1.5
v -1 2 1.5
v 1 2 1.5
v 2 2 1.5
v -4 2 0.5
v -3 2 0.5
v 3 2 0.5
v 4 2 0.5
v -4 2 -0.5
v -3 2 -0.5
v 3 2 -0.5
v 4 2 -0.5
v -2 2 -1.5
v -1 2 -1.5
v 1 2 -1.5
v 2 2 -1.5
v -2 2 -2.5
v 2 2 -2.5
v -3 7 2.5
v -2 7 2.5
v 2 7 2.5
v 3 7 2.5
v -3 7 1.5
v -2 7 1.5
v 2 7 1.5
v 3 7 1.5
v -4 7 0.5
v -3 7 0.5
v 3 7 0.5
v 4 7 0.5
v -4 7 -0.5
v -3 7 -0.5
v 3 7 -0.5
v 4 7 -0.5
v -4 6 0.5
v -3 6 0.5
v 3 6 0.5
v 4 6 0.5
v -4 6 -0.5
v -3 6 -0.5
v 3 6 -0.5
v 4 6 -0.5
v -3 9 2.5
v -2 9 2.5
v 2 9 2.5
v 3 9 2.5
v -3 9 1.5
v -2 9 1.5
v 2 9 1.5
v 3 9 1.5
v -4 9 0.5
v -3 9 0.5
v 3 9 0.5
v 4 9 0.5
v -4 9 -0.5
v -3 9 -0.5
v 3 9 -0.5
v 4 9 -0.5
v -2 10 2.5
v 2 10 2.5
v -3 10 1.5
v -2 10 1.5
v 2 10 1.5
v 3 10 1.5
v -3 10 -1.5
v -2 10 -1.5
v 2 10 -1.5
v 3 10 -1.5
v -2 11 1.5
v 2 11 1.5
v -2 11 -2.5
v 2 11 -2.5

# faces
f 3/1/1 2/1/1 1/1/1
f 4/1/1 2/1/1 3/1/1
f 5/5/1 4/5/1 3/5/1
f 6/5/1 4/5/1 5/5/1
f 9/1/1 8/1/1 7/1/1
f 10/1/1 8/1/1 9/1/1
f 13/3/1 12/3/1 11/3/1
f 14/3/1 12/3/1 13/3/1
f 15/3/1 12/3/1 14/3/1
f 16/3/1 12/3/1 15/3/1
f 17/6/1 14/6/1 13/6/1
f 18/6/1 14/6/1 17/6/1
f 19/6/1 16/6/1 15/6/1
f 20/6/1 16/6/1 19/6/1
f 21/5/1 18/5/1 17/5/1
f 22/5/1 18/5/1 21/5/1
f 23/5/1 20/5/1 19/5/1
f 24/5/1 20/5/1 23/5/1
f 26/1/1 22/1/1 21/1/1
f 26/1/1 23/1/1 22/1/1
f 26/1/1 24/1/1 23/1/1
f 27/1/1 24/1/1 26/1/1
f 28/1/1 24/1/1 27/1/1
f 29/1/1 26/1/1 25/1/1
f 29/1/1 27/1/1 26/1/1
f 30/1/1 27/1/1 29/1/1
f 31/1/1 27/1/1 30/1/1
f 32/1/1 24/1/1 28/1/1
f 33/1/1 31/1/1 30/1/1
f 33/1/1 32/1/1 31/1/1
f 34/1/1 24/1/1 32/1/1
f 34/1/1 32/1/1 33/1/1
f 37/9/1 36/9/1 35/9/1
f 38/9/1 36/9/1 37/9/1
f 43/6/1 40/6/1 39/6/1
f 44/6/1 40/6/1 43/6/1
f 45/6/1 42/6/1 41/6/1
f 46/6/1 42/6/1 45/6/1
f 47/5/1 44/5/1 43/5/1
f 48/5/1 44/5/1 47/5/1
f 49/5/1 46/5/1 45/5/1
f 50/5/1 46/5/1 49/5/1
f 51/1/1 48/1/1 47/1/1
f 52/1/1 48/1/1 51/1/1
f 55/1/1 54/1/1 53/1/1
f 56/1/1 54/1/1 55/1/1
f 57/1/1 50/1/1 49/1/1
f 58/1/1 57/1/1 56/1/1
f 59/1/1 50/1/1 57/1/1
f 59/1/1 57/1/1 58/1/1
f 63/9/1 61/9/1 60/9/1
f 64/9/1 61/9/1 63/9/1
f 66/3/1 63/3/1 62/3/1
f 66/3/1 65/3/1 64/3/1
f 66/3/1 64/3/1 63/3/1
f 67/3/1 65/3/1 66/3/1
f 68/9/2 69/9/2 71/9/2
f 71/9/2 69/9/2 72/9/2
f 70/3/2 71/3/2 74/3/2
f 72/3/2 73/3/2 74/3/2
f 71/3/2 72/3/2 74/3/2
f 74/3/2 73/3/2 75/3/2
f 76/9/2 77/9/2 78/9/2
f 78/9/2 77/9/2 79/9/2
f 80/6/2 81/6/2 84/6/2
f 84/6/2 81/6/2 85/6/2
f 82/6/2 83/6/2 86/6/2
f 86/6/2 83/6/2 87/6/2
f 84/5/2 85/5/2 88/5/2
f 88/5/2 85/5/2 89/5/2
f 86/5/2 87/5/2 90/5/2
f 90/5/2 87/5/2 91/5/2
f 88/1/2 89/1/2 92/1/2
f 92/1/2 89/1/2 93/1/2
f 94/1/2 95/1/2 96/1/2
f 96/1/2 95/1/2 97/1/2
f 90/1/2 91/1/2 98/1/2
f 97/1/2 98/1/2 99/1/2
f 98/1/2 91/1/2 100/1/2
f 99/1/2 98/1/2 100/1/2
f 101/3/2 102/3/2 103/3/2
f 103/3/2 102/3/2 104/3/2
f 104/3/2 102/3/2 105/3/2
f 105/3/2 102/3/2 106/3/2
f 103/6/2 104/6/2 107/6/2
f 107/6/2 104/6/2 108/6/2
f 105/6/2 106/6/2 109/6/2
f 109/6/2 106/6/2 110/6/2
f 107/5/2 108/5/2 111/5/2
f 111/5/2 108/5/2 112/5/2
f 109/5/2 110/5/2 113/5/2
f 113/5/2 110/5/2 114/5/2
f 111/1/2 112/1/2 116/1/2
f 112/1/2 113/1/2 116/1/2
f 113/1/2 114/1/2 116/1/2
f 116/1/2 114/1/2 117/1/2
f 117/1/2 114/1/2 118/1/2
f 115/1/2 116/1/2 119/1/2
f 116/1/2 117/1/2 119/1/2
f 119/1/2 117/1/2 120/1/2
f 120/1/2 117/1/2 121/1/2
f 118/1/2 114/1/2 122/1/2
f 120/1/2 121/1/2 123/1/2
f 121/1/2 122/1/2 123/1/2
f 122/1/2 114/1/2 124/1/2
f 123/1/2 122/1/2 124/1/2
f 125/1/2 126/1/2 127/1/2
f 127/1/2 126/1/2 128/1/2
f 127/5/2 128/5/2 129/5/2
f 129/5/2 128/5/2 130/5/2
f 131/1/2 132/1/2 133/1/2
f 133/1/2 132/1/2 134/1/2
f 140/1/3 136/1/3 135/1/3
f 141/1/3 136/1/3 140/1/3
f 142/1/3 136/1/3 141/1/3
f 144/5/3 139/5/3 138/5/3
f 144/1/3 140/1/3 139/1/3
f 144/1/3 141/1/3 140/1/3
f 145/1/3 141/1/3 144/1/3
f 146/8/3 142/8/3 141/8/3
f 146/1/3 141/1/3 145/1/3
f 147/1/3 143/1/3 142/1/3
f 147/8/3 142/8/3 146/8/3
f 148/6/3 138/6/3 137/6/3
f 148/5/3 144/5/3 138/5/3
f 149/2/3 145/2/3 144/2/3
f 149/5/3 144/5/3 148/5/3
f 150/6/3 148/6/3 137/6/3
f 150/4/3 149/4/3 148/4/3
f 151/2/3 145/2/3 149/2/3
f 151/4/3 149/4/3 150/4/3
f 152/1/3 146/1/3 145/1/3
f 152/2/3 145/2/3 151/2/3
f 152/1/3 147/1/3 146/1/3
f 153/1/3 147/1/3 152/1/3
f 154/1/3 143/1/3 147/1/3
f 154/1/3 147/1/3 153/1/3
f 155/6/3 150/6/3 137/6/3
f 156/5/3 151/5/3 150/5/3
f 156/6/3 150/6/3 155/6/3
f 157/1/3 153/1/3 152/1/3
f 157/5/3 151/5/3 156/5/3
f 157/1/3 152/1/3 151/1/3
f 158/1/3 153/1/3 157/1/3
f 159/8/3 154/8/3 153/8/3
f 159/1/3 153/1/3 158/1/3
f 160/1/3 143/1/3 154/1/3
f 160/8/3 154/8/3 159/8/3
f 161/1/3 143/1/3 160/1/3
f 162/1/3 159/1/3 158/1/3
f 162/1/3 160/1/3 159/1/3
f 163/1/3 160/1/3 162/1/3
f 171/3/3 165/3/3 164/3/3
f 171/6/3 166/6/3 165/6/3
f 172/5/3 167/5/3 166/5/3
f 172/6/3 166/6/3 171/6/3
f 173/1/3 168/1/3 167/1/3
f 173/5/3 167/5/3 172/5/3
f 174/1/3 168/1/3 173/1/3
f 175/1/3 170/1/3 169/1/3
f 176/1/3 170/1/3 175/1/3
f 178/3/3 171/3/3 164/3/3
f 179/3/3 171/3/3 178/3/3
f 182/3/3 181/3/3 180/3/3
f 187/1/3 177/1/3 176/1/3
f 188/1/3 177/1/3 187/1/3
f 189/3/3 182/3/3 180/3/3
f 190/6/3 183/6/3 182/6/3
f 190/3/3 182/3/3 189/3/3
f 191/5/3 184/5/3 183/5/3
f 191/6/3 183/6/3 190/6/3
f 192/1/3 185/1/3 184/1/3
f 192/5/3 184/5/3 191/5/3
f 193/1/3 185/1/3 192/1/3
f 194/1/3 187/1/3 186/1/3
f 195/1/3 187/1/3 194/1/3
f 201/1/3 197/1/3 196/1/3
f 202/5/3 198/5/3 197/5/3
f 202/1/3 197/1/3 201/1/3
f 203/5/3 198/5/3 202/5/3
f 204/1/3 200/1/3 199/1/3
f 205/1/3 200/1/3 204/1/3
f 208/9/3 207/9/3 206/9/3
f 209/9/3 207/9/3 208/9/3
f 212/9/3 211/9/3 210/9/3
f 213/9/3 211/9/3 212/9/3
f 219/1/3 215/1/3 214/1/3
f 220/5/3 216/5/3 215/5/3
f 220/1/3 215/1/3 219/1/3
f 221/5/3 216/5/3 220/5/3
f 222/1/3 218/1/3 217/1/3
f 223/1/3 218/1/3 222/1/3
f 224/1/4 225/1/4 229/1/4
f 225/5/4 226/5/4 230/5/4
f 229/1/4 225/1/4 230/1/4
f 230/5/4 226/5/4 231/5/4
f 227/1/4 228/1/4 232/1/4
f 232/1/4 228/1/4 233/1/4
f 234/9/4 235/9/4 236/9/4
f 236/9/4 235/9/4 237/9/4
f 238/9/4 239/9/4 240/9/4
f 240/9/4 239/9/4 241/9/4
f 242/1/4 243/1/4 247/1/4
f 243/5/4 244/5/4 248/5/4
f 247/1/4 243/1/4 248/1/4
f 248/5/4 244/5/4 249/5/4
f 245/1/4 246/1/4 250/1/4
f 250/1/4 246/1/4 251/1/4
f 252/3/4 253/3/4 257/3/4
f 253/6/4 254/6/4 257/6/4
f 254/5/4 255/5/4 258/5/4
f 257/6/4 254/6/4 258/6/4
f 255/1/4 256/1/4 259/1/4
f 258/5/4 255/5/4 259/5/4
f 259/1/4 256/1/4 260/1/4
f 252/3/4 257/3/4 261/3/4
f 261/3/4 257/3/4 262/3/4
f 263/3/4 264/3/4 265/3/4
f 263/3/4 265/3/4 269/3/4
f 265/6/4 266/6/4 270/6/4
f 269/3/4 265/3/4 270/3/4
f 266/5/4 267/5/4 271/5/4
f 270/6/4 266/6/4 271/6/4
f 267/1/4 268/1/4 272/1/4
f 271/5/4 267/5/4 272/5/4
f 272/1/4 268/1/4 273/1/4
f 274/6/4 275/6/4 278/6/4
f 275/5/4 276/5/4 279/5/4
f 278/6/4 275/6/4 279/6/4
f 276/1/4 277/1/4 280/1/4
f 279/5/4 276/5/4 280/5/4
f 280/1/4 277/1/4 281/1/4
f 286/9/5 283/9/5 282/9/5
f 287/9/5 283/9/5 286/9/5
f 288/9/5 285/9/5 284/9/5
f 289/9/5 285/9/5 288/9/5
f 294/3/5 291/3/5 290/3/5
f 295/3/5 291/3/5 294/3/5
f 296/3/5 293/3/5 292/3/5
f 297/3/5 293/3/5 296/3/5
f 298/3/5 294/3/5 290/3/5
f 301/3/5 293/3/5 297/3/5
f 302/3/5 299/3/5 298/3/5
f 302/3/5 298/3/5 290/3/5
f 303/3/5 299/3/5 302/3/5
f 304/3/5 301/3/5 300/3/5
f 305/3/5 293/3/5 301/3/5
f 305/3/5 301/3/5 304/3/5
f 308/6/5 307/6/5 306/6/5
f 309/6/5 307/6/5 308/6/5
f 310/6/5 307/6/5 309/6/5
f 311/6/5 307/6/5 310/6/5
f 316/1/5 313/1/5 312/1/5
f 317/1/5 313/1/5 316/1/5
f 318/1/5 315/1/5 314/1/5
f 319/1/5 315/1/5 318/1/5
f 321/3/5 310/3/5 309/3/5
f 322/3/5 310/3/5 321/3/5
f 324/6/5 321/6/5 320/6/5
f 324/6/5 323/6/5 322/6/5
f 324/6/5 322/6/5 321/6/5
f 325/6/5 323/6/5 324/6/5
f 330/1/5 327/1/5 326/1/5
f 331/1/5 327/1/5 330/1/5
f 332/1/5 329/1/5 328/1/5
f 333/1/5 329/1/5 332/1/5
f 338/1/5 335/1/5 334/1/5
f 339/1/5 335/1/5 338/1/5
f 340/1/5 337/1/5 336/1/5
f 341/1/5 337/1/5 340/1/5
f 342/5/6 343/5/6 346/5/6
f 346/5/6 343/5/6 347/5/6
f 344/5/6 345/5/6 348/5/6
f 348/5/6 345/5/6 349/5/6
f 350/1/6 351/1/6 354/1/6
f 354/1/6 351/1/6 355/1/6
f 352/1/6 353/1/6 356/1/6
f 356/1/6 353/1/6 357/1/6
f 358/1/6 359/1/6 362/1/6
f 362/1/6 359/1/6 363/1/6
f 360/1/6 361/1/6 364/1/6
f 364/1/6 361/1/6 365/1/6
f 366/1/6 367/1/6 369/1/6
f 369/1/6 367/1/6 370/1/6
f 368/1/6 369/1/6 372/1/6
f 372/1/6 369/1/6 373/1/6
f 370/1/6 371/1/6 374/1/6
f 374/1/6 371/1/6 375/1/6
f 376/1/6 377/1/6 378/1/6
f 378/1/6 377/1/6 379/1/6
