# MagicaVoxel @ Ephtracy

# material
mtllib woodhouse.mtl
usemtl palette

# normals
vn -1 0 0
vn 1 0 0
vn 0 0 1
vn 0 0 -1
vn 0 -1 0
vn 0 1 0

# texcoords
vt 0.916016 0.5
vt 0.919922 0.5
vt 0.927734 0.5

# verts
v -7 6 8
v -7 6 -8
v -7 7 8
v -7 7 -8
v -6 0 6
v -6 0 -7
v -6 6 6
v -6 6 -7
v -6 7 8
v -6 7 -8
v -6 8 8
v -6 8 -8
v -5 8 9
v -5 8 8
v -5 8 -8
v -5 8 -9
v -5 9 9
v -5 9 -9
v -4 9 9
v -4 9 -9
v -4 10 9
v -4 10 -9
v -3 10 10
v -3 10 9
v -3 10 -9
v -3 10 -10
v -3 11 10
v -3 11 -10
v -2 11 10
v -2 11 -10
v -2 12 10
v -2 12 -10
v -1 12 11
v -1 12 10
v -1 12 -10
v -1 12 -11
v -1 13 11
v -1 13 -11
v 0 13 11
v 0 13 -11
v 0 14 11
v 0 14 -11
v 2 12 11
v 2 12 6
v 2 12 -7
v 2 12 -11
v 2 13 11
v 2 13 6
v 2 13 -7
v 2 13 -11
v 3 11 10
v 3 11 6
v 3 11 -7
v 3 11 -10
v 3 12 10
v 3 12 6
v 3 12 -7
v 3 12 -10
v 4 10 10
v 4 10 6
v 4 10 -7
v 4 10 -10
v 4 11 10
v 4 11 6
v 4 11 -7
v 4 11 -10
v 5 9 9
v 5 9 6
v 5 9 -7
v 5 9 -9
v 5 10 9
v 5 10 6
v 5 10 -7
v 5 10 -9
v 6 8 9
v 6 8 6
v 6 8 -7
v 6 8 -9
v 6 9 9
v 6 9 6
v 6 9 -7
v 6 9 -9
v 7 7 8
v 7 7 6
v 7 7 -7
v 7 7 -8
v 7 8 8
v 7 8 6
v 7 8 -7
v 7 8 -8
v 8 6 8
v 8 6 6
v 8 6 -7
v 8 6 -8
v 8 7 8
v 8 7 6
v 8 7 -7
v 8 7 -8
v -6 6 8
v -6 6 6
v -6 6 -7
v -6 6 -8
v -6 7 8
v -6 7 6
v -6 7 -7
v -6 7 -8
v -5 7 8
v -5 7 6
v -5 7 -7
v -5 7 -8
v -5 8 8
v -5 8 6
v -5 8 -7
v -5 8 -8
v -4 8 9
v -4 8 6
v -4 8 -7
v -4 8 -9
v -4 9 9
v -4 9 6
v -4 9 -7
v -4 9 -9
v -3 9 9
v -3 9 6
v -3 9 -7
v -3 9 -9
v -3 10 9
v -3 10 6
v -3 10 -7
v -3 10 -9
v -2 10 10
v -2 10 6
v -2 10 -7
v -2 10 -10
v -2 11 10
v -2 11 6
v -2 11 -7
v -2 11 -10
v -1 11 10
v -1 11 6
v -1 11 -7
v -1 11 -10
v -1 12 10
v -1 12 6
v -1 12 -7
v -1 12 -10
v 0 12 11
v 0 12 6
v 0 12 -7
v 0 12 -11
v 0 13 11
v 0 13 6
v 0 13 -7
v 0 13 -11
v 2 13 11
v 2 13 -11
v 2 14 11
v 2 14 -11
v 3 12 11
v 3 12 10
v 3 12 -10
v 3 12 -11
v 3 13 11
v 3 13 -11
v 4 11 10
v 4 11 -10
v 4 12 10
v 4 12 -10
v 5 10 10
v 5 10 9
v 5 10 -9
v 5 10 -10
v 5 11 10
v 5 11 -10
v 6 9 9
v 6 9 -9
v 6 10 9
v 6 10 -9
v 7 8 9
v 7 8 8
v 7 8 -8
v 7 8 -9
v 7 9 9
v 7 9 -9
v 8 0 6
v 8 0 -7
v 8 6 6
v 8 6 -7
v 8 7 8
v 8 7 -8
v 8 8 8
v 8 8 -8
v 9 6 8
v 9 6 -8
v 9 7 8
v 9 7 -8
v -1 12 11
v -1 13 11
v 0 12 11
v 0 13 11
v 0 14 11
v 2 12 11
v 2 13 11
v 2 14 11
v 3 12 11
v 3 13 11
v -3 10 10
v -3 11 10
v -2 10 10
v -2 11 10
v -2 12 10
v -1 11 10
v -1 12 10
v 3 11 10
v 3 12 10
v 4 10 10
v 4 11 10
v 4 12 10
v 5 10 10
v 5 11 10
v -5 8 9
v -5 9 9
v -4 8 9
v -4 9 9
v -4 10 9
v -3 9 9
v -3 10 9
v 5 9 9
v 5 10 9
v 6 8 9
v 6 9 9
v 6 10 9
v 7 8 9
v 7 9 9
v -7 6 8
v -7 7 8
v -6 6 8
v -6 7 8
v -6 8 8
v -5 7 8
v -5 8 8
v 7 7 8
v 7 8 8
v 8 6 8
v 8 7 8
v 8 8 8
v 9 6 8
v 9 7 8
v -6 0 6
v -6 6 6
v -6 7 6
v -5 7 6
v -5 8 6
v -4 8 6
v -4 9 6
v -3 9 6
v -3 10 6
v -2 10 6
v -2 11 6
v -1 0 6
v -1 5 6
v -1 11 6
v -1 12 6
v 0 12 6
v 0 13 6
v 2 12 6
v 2 13 6
v 3 0 6
v 3 5 6
v 3 11 6
v 3 12 6
v 4 10 6
v 4 11 6
v 5 9 6
v 5 10 6
v 6 8 6
v 6 9 6
v 7 7 6
v 7 8 6
v 8 0 6
v 8 6 6
v 8 7 6
v -6 0 -7
v -6 6 -7
v -6 7 -7
v -5 7 -7
v -5 8 -7
v -4 8 -7
v -4 9 -7
v -3 9 -7
v -3 10 -7
v -2 10 -7
v -2 11 -7
v -1 11 -7
v -1 12 -7
v 0 12 -7
v 0 13 -7
v 2 12 -7
v 2 13 -7
v 3 11 -7
v 3 12 -7
v 4 10 -7
v 4 11 -7
v 5 9 -7
v 5 10 -7
v 6 8 -7
v 6 9 -7
v 7 7 -7
v 7 8 -7
v 8 0 -7
v 8 6 -7
v 8 7 -7
v -7 6 -8
v -7 7 -8
v -6 6 -8
v -6 7 -8
v -6 8 -8
v -5 7 -8
v -5 8 -8
v 7 7 -8
v 7 8 -8
v 8 6 -8
v 8 7 -8
v 8 8 -8
v 9 6 -8
v 9 7 -8
v -5 8 -9
v -5 9 -9
v -4 8 -9
v -4 9 -9
v -4 10 -9
v -3 9 -9
v -3 10 -9
v 5 9 -9
v 5 10 -9
v 6 8 -9
v 6 9 -9
v 6 10 -9
v 7 8 -9
v 7 9 -9
v -3 10 -10
v -3 11 -10
v -2 10 -10
v -2 11 -10
v -2 12 -10
v -1 11 -10
v -1 12 -10
v 3 11 -10
v 3 12 -10
v 4 10 -10
v 4 11 -10
v 4 12 -10
v 5 10 -10
v 5 11 -10
v -1 12 -11
v -1 13 -11
v 0 12 -11
v 0 13 -11
v 0 14 -11
v 2 12 -11
v 2 13 -11
v 2 14 -11
v 3 12 -11
v 3 13 -11
v -6 0 6
v -1 0 6
v 3 0 6
v 8 0 6
v -5 0 5
v -1 0 5
v 3 0 5
v 7 0 5
v -5 0 -6
v 7 0 -6
v -6 0 -7
v 8 0 -7
v -7 6 8
v -6 6 8
v 8 6 8
v 9 6 8
v -6 6 6
v 8 6 6
v -6 6 -7
v 8 6 -7
v -7 6 -8
v -6 6 -8
v 8 6 -8
v 9 6 -8
v -6 7 8
v -5 7 8
v 7 7 8
v 8 7 8
v -6 7 6
v -5 7 6
v 7 7 6
v 8 7 6
v -6 7 -7
v -5 7 -7
v 7 7 -7
v 8 7 -7
v -6 7 -8
v -5 7 -8
v 7 7 -8
v 8 7 -8
v -5 8 9
v -4 8 9
v 6 8 9
v 7 8 9
v -5 8 8
v 7 8 8
v -5 8 6
v -4 8 6
v 6 8 6
v 7 8 6
v -5 8 -7
v -4 8 -7
v 6 8 -7
v 7 8 -7
v -5 8 -8
v 7 8 -8
v -5 8 -9
v -4 8 -9
v 6 8 -9
v 7 8 -9
v -4 9 9
v -3 9 9
v 5 9 9
v 6 9 9
v -4 9 6
v -3 9 6
v 5 9 6
v 6 9 6
v -4 9 -7
v -3 9 -7
v 5 9 -7
v 6 9 -7
v -4 9 -9
v -3 9 -9
v 5 9 -9
v 6 9 -9
v -3 10 10
v -2 10 10
v 4 10 10
v 5 10 10
v -3 10 9
v 5 10 9
v -3 10 6
v -2 10 6
v 4 10 6
v 5 10 6
v -3 10 -7
v -2 10 -7
v 4 10 -7
v 5 10 -7
v -3 10 -9
v 5 10 -9
v -3 10 -10
v -2 10 -10
v 4 10 -10
v 5 10 -10
v -2 11 10
v -1 11 10
v 3 11 10
v 4 11 10
v -2 11 6
v -1 11 6
v 3 11 6
v 4 11 6
v -2 11 -7
v -1 11 -7
v 3 11 -7
v 4 11 -7
v -2 11 -10
v -1 11 -10
v 3 11 -10
v 4 11 -10
v -1 12 11
v 0 12 11
v 2 12 11
v 3 12 11
v -1 12 10
v 3 12 10
v -1 12 6
v 0 12 6
v 2 12 6
v 3 12 6
v -1 12 -7
v 0 12 -7
v 2 12 -7
v 3 12 -7
v -1 12 -10
v 3 12 -10
v -1 12 -11
v 0 12 -11
v 2 12 -11
v 3 12 -11
v 0 13 11
v 2 13 11
v 0 13 6
v 2 13 6
v 0 13 -7
v 2 13 -7
v 0 13 -11
v 2 13 -11
v -7 7 8
v -6 7 8
v 8 7 8
v 9 7 8
v -7 7 -8
v -6 7 -8
v 8 7 -8
v 9 7 -8
v -6 8 8
v -5 8 8
v 7 8 8
v 8 8 8
v -6 8 -8
v -5 8 -8
v 7 8 -8
v 8 8 -8
v -5 9 9
v -4 9 9
v 6 9 9
v 7 9 9
v -5 9 -9
v -4 9 -9
v 6 9 -9
v 7 9 -9
v -4 10 9
v -3 10 9
v 5 10 9
v 6 10 9
v -4 10 -9
v -3 10 -9
v 5 10 -9
v 6 10 -9
v -3 11 10
v -2 11 10
v 4 11 10
v 5 11 10
v -3 11 -10
v -2 11 -10
v 4 11 -10
v 5 11 -10
v -2 12 10
v -1 12 10
v 3 12 10
v 4 12 10
v -2 12 -10
v -1 12 -10
v 3 12 -10
v 4 12 -10
v -1 13 11
v 0 13 11
v 2 13 11
v 3 13 11
v -1 13 -11
v 0 13 -11
v 2 13 -11
v 3 13 -11
v 0 14 11
v 2 14 11
v 0 14 -11
v 2 14 -11

# faces
f 3/3/1 2/3/1 1/3/1
f 4/3/1 2/3/1 3/3/1
f 7/2/1 6/2/1 5/2/1
f 8/2/1 6/2/1 7/2/1
f 11/3/1 10/3/1 9/3/1
f 12/3/1 10/3/1 11/3/1
f 17/3/1 14/3/1 13/3/1
f 17/3/1 16/3/1 15/3/1
f 17/3/1 15/3/1 14/3/1
f 18/3/1 16/3/1 17/3/1
f 21/3/1 20/3/1 19/3/1
f 22/3/1 20/3/1 21/3/1
f 27/3/1 24/3/1 23/3/1
f 27/3/1 26/3/1 25/3/1
f 27/3/1 25/3/1 24/3/1
f 28/3/1 26/3/1 27/3/1
f 31/3/1 30/3/1 29/3/1
f 32/3/1 30/3/1 31/3/1
f 37/3/1 34/3/1 33/3/1
f 37/3/1 36/3/1 35/3/1
f 37/3/1 35/3/1 34/3/1
f 38/3/1 36/3/1 37/3/1
f 41/3/1 40/3/1 39/3/1
f 42/3/1 40/3/1 41/3/1
f 47/3/1 44/3/1 43/3/1
f 48/3/1 44/3/1 47/3/1
f 49/3/1 46/3/1 45/3/1
f 50/3/1 46/3/1 49/3/1
f 55/3/1 52/3/1 51/3/1
f 56/3/1 52/3/1 55/3/1
f 57/3/1 54/3/1 53/3/1
f 58/3/1 54/3/1 57/3/1
f 63/3/1 60/3/1 59/3/1
f 64/3/1 60/3/1 63/3/1
f 65/3/1 62/3/1 61/3/1
f 66/3/1 62/3/1 65/3/1
f 71/3/1 68/3/1 67/3/1
f 72/3/1 68/3/1 71/3/1
f 73/3/1 70/3/1 69/3/1
f 74/3/1 70/3/1 73/3/1
f 79/3/1 76/3/1 75/3/1
f 80/3/1 76/3/1 79/3/1
f 81/3/1 78/3/1 77/3/1
f 82/3/1 78/3/1 81/3/1
f 87/3/1 84/3/1 83/3/1
f 88/3/1 84/3/1 87/3/1
f 89/3/1 86/3/1 85/3/1
f 90/3/1 86/3/1 89/3/1
f 95/3/1 92/3/1 91/3/1
f 96/3/1 92/3/1 95/3/1
f 97/3/1 94/3/1 93/3/1
f 98/3/1 94/3/1 97/3/1
f 99/3/2 100/3/2 103/3/2
f 103/3/2 100/3/2 104/3/2
f 101/3/2 102/3/2 105/3/2
f 105/3/2 102/3/2 106/3/2
f 107/3/2 108/3/2 111/3/2
f 111/3/2 108/3/2 112/3/2
f 109/3/2 110/3/2 113/3/2
f 113/3/2 110/3/2 114/3/2
f 115/3/2 116/3/2 119/3/2
f 119/3/2 116/3/2 120/3/2
f 117/3/2 118/3/2 121/3/2
f 121/3/2 118/3/2 122/3/2
f 123/3/2 124/3/2 127/3/2
f 127/3/2 124/3/2 128/3/2
f 125/3/2 126/3/2 129/3/2
f 129/3/2 126/3/2 130/3/2
f 131/3/2 132/3/2 135/3/2
f 135/3/2 132/3/2 136/3/2
f 133/3/2 134/3/2 137/3/2
f 137/3/2 134/3/2 138/3/2
f 139/3/2 140/3/2 143/3/2
f 143/3/2 140/3/2 144/3/2
f 141/3/2 142/3/2 145/3/2
f 145/3/2 142/3/2 146/3/2
f 147/3/2 148/3/2 151/3/2
f 151/3/2 148/3/2 152/3/2
f 149/3/2 150/3/2 153/3/2
f 153/3/2 150/3/2 154/3/2
f 155/3/2 156/3/2 157/3/2
f 157/3/2 156/3/2 158/3/2
f 159/3/2 160/3/2 163/3/2
f 161/3/2 162/3/2 163/3/2
f 160/3/2 161/3/2 163/3/2
f 163/3/2 162/3/2 164/3/2
f 165/3/2 166/3/2 167/3/2
f 167/3/2 166/3/2 168/3/2
f 169/3/2 170/3/2 173/3/2
f 171/3/2 172/3/2 173/3/2
f 170/3/2 171/3/2 173/3/2
f 173/3/2 172/3/2 174/3/2
f 175/3/2 176/3/2 177/3/2
f 177/3/2 176/3/2 178/3/2
f 179/3/2 180/3/2 183/3/2
f 181/3/2 182/3/2 183/3/2
f 180/3/2 181/3/2 183/3/2
f 183/3/2 182/3/2 184/3/2
f 185/2/2 186/2/2 187/2/2
f 187/2/2 186/2/2 188/2/2
f 189/3/2 190/3/2 191/3/2
f 191/3/2 190/3/2 192/3/2
f 193/3/2 194/3/2 195/3/2
f 195/3/2 194/3/2 196/3/2
f 199/3/3 198/3/3 197/3/3
f 200/3/3 198/3/3 199/3/3
f 203/3/3 201/3/3 200/3/3
f 204/3/3 201/3/3 203/3/3
f 205/3/3 203/3/3 202/3/3
f 206/3/3 203/3/3 205/3/3
f 209/3/3 208/3/3 207/3/3
f 210/3/3 208/3/3 209/3/3
f 212/3/3 211/3/3 210/3/3
f 213/3/3 211/3/3 212/3/3
f 217/3/3 215/3/3 214/3/3
f 218/3/3 215/3/3 217/3/3
f 219/3/3 217/3/3 216/3/3
f 220/3/3 217/3/3 219/3/3
f 223/3/3 222/3/3 221/3/3
f 224/3/3 222/3/3 223/3/3
f 226/3/3 225/3/3 224/3/3
f 227/3/3 225/3/3 226/3/3
f 231/3/3 229/3/3 228/3/3
f 232/3/3 229/3/3 231/3/3
f 233/3/3 231/3/3 230/3/3
f 234/3/3 231/3/3 233/3/3
f 237/3/3 236/3/3 235/3/3
f 238/3/3 236/3/3 237/3/3
f 240/3/3 239/3/3 238/3/3
f 241/3/3 239/3/3 240/3/3
f 245/3/3 243/3/3 242/3/3
f 246/3/3 243/3/3 245/3/3
f 247/3/3 245/3/3 244/3/3
f 248/3/3 245/3/3 247/3/3
f 252/2/3 250/2/3 249/2/3
f 252/2/3 251/2/3 250/2/3
f 254/2/3 253/2/3 252/2/3
f 256/2/3 255/2/3 254/2/3
f 258/1/3 257/1/3 256/1/3
f 260/2/3 252/2/3 249/2/3
f 260/2/3 254/2/3 252/2/3
f 260/2/3 256/2/3 254/2/3
f 261/2/3 256/2/3 260/2/3
f 262/2/3 259/2/3 258/2/3
f 264/1/3 263/1/3 262/1/3
f 266/1/3 264/1/3 262/1/3
f 266/2/3 265/2/3 264/2/3
f 267/2/3 265/2/3 266/2/3
f 268/3/3 261/3/3 260/3/3
f 269/2/3 256/2/3 261/2/3
f 269/3/3 261/3/3 268/3/3
f 270/2/3 262/2/3 258/2/3
f 270/1/3 266/1/3 262/1/3
f 271/1/3 266/1/3 270/1/3
f 272/1/3 258/1/3 256/1/3
f 272/2/3 270/2/3 258/2/3
f 273/2/3 270/2/3 272/2/3
f 274/2/3 256/2/3 269/2/3
f 274/2/3 269/2/3 268/2/3
f 274/1/3 272/1/3 256/1/3
f 275/1/3 272/1/3 274/1/3
f 276/2/3 274/2/3 268/2/3
f 277/2/3 274/2/3 276/2/3
f 278/2/3 276/2/3 268/2/3
f 279/2/3 276/2/3 278/2/3
f 280/2/3 278/2/3 268/2/3
f 281/2/3 278/2/3 280/2/3
f 282/2/3 278/2/3 281/2/3
f 283/2/4 284/2/4 286/2/4
f 284/2/4 285/2/4 286/2/4
f 286/1/4 287/1/4 288/1/4
f 288/2/4 289/2/4 290/2/4
f 290/1/4 291/1/4 292/1/4
f 292/2/4 293/2/4 294/2/4
f 294/1/4 295/1/4 296/1/4
f 294/1/4 296/1/4 298/1/4
f 296/2/4 297/2/4 298/2/4
f 298/2/4 297/2/4 299/2/4
f 292/2/4 294/2/4 300/2/4
f 294/1/4 298/1/4 300/1/4
f 300/1/4 298/1/4 301/1/4
f 290/1/4 292/1/4 302/1/4
f 292/2/4 300/2/4 302/2/4
f 302/2/4 300/2/4 303/2/4
f 288/2/4 290/2/4 304/2/4
f 290/1/4 302/1/4 304/1/4
f 304/1/4 302/1/4 305/1/4
f 286/1/4 288/1/4 306/1/4
f 288/2/4 304/2/4 306/2/4
f 306/2/4 304/2/4 307/2/4
f 283/2/4 286/2/4 308/2/4
f 286/1/4 306/1/4 308/1/4
f 308/1/4 306/1/4 309/1/4
f 283/2/4 308/2/4 310/2/4
f 310/2/4 308/2/4 311/2/4
f 311/2/4 308/2/4 312/2/4
f 313/3/4 314/3/4 315/3/4
f 315/3/4 314/3/4 316/3/4
f 316/3/4 317/3/4 318/3/4
f 318/3/4 317/3/4 319/3/4
f 320/3/4 321/3/4 323/3/4
f 323/3/4 321/3/4 324/3/4
f 322/3/4 323/3/4 325/3/4
f 325/3/4 323/3/4 326/3/4
f 327/3/4 328/3/4 329/3/4
f 329/3/4 328/3/4 330/3/4
f 330/3/4 331/3/4 332/3/4
f 332/3/4 331/3/4 333/3/4
f 334/3/4 335/3/4 337/3/4
f 337/3/4 335/3/4 338/3/4
f 336/3/4 337/3/4 339/3/4
f 339/3/4 337/3/4 340/3/4
f 341/3/4 342/3/4 343/3/4
f 343/3/4 342/3/4 344/3/4
f 344/3/4 345/3/4 346/3/4
f 346/3/4 345/3/4 347/3/4
f 348/3/4 349/3/4 351/3/4
f 351/3/4 349/3/4 352/3/4
f 350/3/4 351/3/4 353/3/4
f 353/3/4 351/3/4 354/3/4
f 355/3/4 356/3/4 357/3/4
f 357/3/4 356/3/4 358/3/4
f 358/3/4 359/3/4 361/3/4
f 361/3/4 359/3/4 362/3/4
f 360/3/4 361/3/4 363/3/4
f 363/3/4 361/3/4 364/3/4
f 369/2/5 366/2/5 365/2/5
f 370/3/5 367/3/5 366/3/5
f 370/2/5 366/2/5 369/2/5
f 371/2/5 368/2/5 367/2/5
f 371/3/5 367/3/5 370/3/5
f 372/2/5 368/2/5 371/2/5
f 373/3/5 370/3/5 369/3/5
f 373/2/5 369/2/5 365/2/5
f 373/3/5 372/3/5 371/3/5
f 373/3/5 371/3/5 370/3/5
f 374/2/5 368/2/5 372/2/5
f 374/3/5 372/3/5 373/3/5
f 375/2/5 373/2/5 365/2/5
f 375/2/5 374/2/5 373/2/5
f 376/2/5 368/2/5 374/2/5
f 376/2/5 374/2/5 375/2/5
f 381/3/5 378/3/5 377/3/5
f 382/3/5 380/3/5 379/3/5
f 383/3/5 381/3/5 377/3/5
f 384/3/5 380/3/5 382/3/5
f 385/3/5 383/3/5 377/3/5
f 386/3/5 383/3/5 385/3/5
f 387/3/5 380/3/5 384/3/5
f 388/3/5 380/3/5 387/3/5
f 393/3/5 390/3/5 389/3/5
f 394/3/5 390/3/5 393/3/5
f 395/3/5 392/3/5 391/3/5
f 396/3/5 392/3/5 395/3/5
f 401/3/5 398/3/5 397/3/5
f 402/3/5 398/3/5 401/3/5
f 403/3/5 400/3/5 399/3/5
f 404/3/5 400/3/5 403/3/5
f 409/3/5 406/3/5 405/3/5
f 410/3/5 408/3/5 407/3/5
f 411/3/5 406/3/5 409/3/5
f 412/3/5 406/3/5 411/3/5
f 413/3/5 410/3/5 407/3/5
f 414/3/5 410/3/5 413/3/5
f 419/3/5 416/3/5 415/3/5
f 420/3/5 418/3/5 417/3/5
f 421/3/5 416/3/5 419/3/5
f 422/3/5 416/3/5 421/3/5
f 423/3/5 420/3/5 417/3/5
f 424/3/5 420/3/5 423/3/5
f 429/3/5 426/3/5 425/3/5
f 430/3/5 426/3/5 429/3/5
f 431/3/5 428/3/5 427/3/5
f 432/3/5 428/3/5 431/3/5
f 437/3/5 434/3/5 433/3/5
f 438/3/5 434/3/5 437/3/5
f 439/3/5 436/3/5 435/3/5
f 440/3/5 436/3/5 439/3/5
f 445/3/5 442/3/5 441/3/5
f 446/3/5 444/3/5 443/3/5
f 447/3/5 442/3/5 445/3/5
f 448/3/5 442/3/5 447/3/5
f 449/3/5 446/3/5 443/3/5
f 450/3/5 446/3/5 449/3/5
f 455/3/5 452/3/5 451/3/5
f 456/3/5 454/3/5 453/3/5
f 457/3/5 452/3/5 455/3/5
f 458/3/5 452/3/5 457/3/5
f 459/3/5 456/3/5 453/3/5
f 460/3/5 456/3/5 459/3/5
f 465/3/5 462/3/5 461/3/5
f 466/3/5 462/3/5 465/3/5
f 467/3/5 464/3/5 463/3/5
f 468/3/5 464/3/5 467/3/5
f 473/3/5 470/3/5 469/3/5
f 474/3/5 470/3/5 473/3/5
f 475/3/5 472/3/5 471/3/5
f 476/3/5 472/3/5 475/3/5
f 481/3/5 478/3/5 477/3/5
f 482/3/5 480/3/5 479/3/5
f 483/3/5 478/3/5 481/3/5
f 484/3/5 478/3/5 483/3/5
f 485/3/5 482/3/5 479/3/5
f 486/3/5 482/3/5 485/3/5
f 491/3/5 488/3/5 487/3/5
f 492/3/5 490/3/5 489/3/5
f 493/3/5 488/3/5 491/3/5
f 494/3/5 488/3/5 493/3/5
f 495/3/5 492/3/5 489/3/5
f 496/3/5 492/3/5 495/3/5
f 499/3/5 498/3/5 497/3/5
f 500/3/5 498/3/5 499/3/5
f 503/3/5 502/3/5 501/3/5
f 504/3/5 502/3/5 503/3/5
f 505/3/6 506/3/6 509/3/6
f 509/3/6 506/3/6 510/3/6
f 507/3/6 508/3/6 511/3/6
f 511/3/6 508/3/6 512/3/6
f 513/3/6 514/3/6 517/3/6
f 517/3/6 514/3/6 518/3/6
f 515/3/6 516/3/6 519/3/6
f 519/3/6 516/3/6 520/3/6
f 521/3/6 522/3/6 525/3/6
f 525/3/6 522/3/6 526/3/6
f 523/3/6 524/3/6 527/3/6
f 527/3/6 524/3/6 528/3/6
f 529/3/6 530/3/6 533/3/6
f 533/3/6 530/3/6 534/3/6
f 531/3/6 532/3/6 535/3/6
f 535/3/6 532/3/6 536/3/6
f 537/3/6 538/3/6 541/3/6
f 541/3/6 538/3/6 542/3/6
f 539/3/6 540/3/6 543/3/6
f 543/3/6 540/3/6 544/3/6
f 545/3/6 546/3/6 549/3/6
f 549/3/6 546/3/6 550/3/6
f 547/3/6 548/3/6 551/3/6
f 551/3/6 548/3/6 552/3/6
f 553/3/6 554/3/6 557/3/6
f 557/3/6 554/3/6 558/3/6
f 555/3/6 556/3/6 559/3/6
f 559/3/6 556/3/6 560/3/6
f 561/3/6 562/3/6 563/3/6
f 563/3/6 562/3/6 564/3/6
