# MagicaVoxel @ Ephtracy

# material
mtllib workbench.mtl
usemtl palette

# normals
vn -1 0 0
vn 1 0 0
vn 0 0 1
vn 0 0 -1
vn 0 -1 0
vn 0 1 0

# texcoords
vt 0.912109 0.5
vt 0.916016 0.5
vt 0.919922 0.5
vt 0.923828 0.5
vt 0.927734 0.5
vt 0.931641 0.5
vt 0.994141 0.5

# verts
v -11 0 11
v -11 0 9
v -11 0 -2
v -11 0 -4
v -11 4 9
v -11 4 -2
v -11 5 11
v -11 5 -4
v -9 0 -8
v -9 0 -13
v -9 5 10
v -9 5 7
v -9 5 5
v -9 5 4
v -9 5 -8
v -9 5 -13
v -9 6 10
v -9 6 7
v -9 6 5
v -9 6 4
v -8 0 5
v -8 0 2
v -8 4 5
v -8 4 2
v -8 5 4
v -8 5 3
v -8 6 4
v -8 6 3
v -7 5 3
v -7 5 2
v -7 6 3
v -7 6 2
v -4 0 11
v -4 0 9
v -4 0 -2
v -4 0 -4
v -4 4 11
v -4 4 10
v -4 4 9
v -4 4 5
v -4 4 4
v -4 4 -2
v -4 4 -3
v -4 4 -4
v -4 5 5
v -4 5 4
v -9 0 11
v -9 0 9
v -9 0 -2
v -9 0 -4
v -9 4 11
v -9 4 10
v -9 4 9
v -9 4 -2
v -9 4 -3
v -9 4 -4
v -8 5 10
v -8 5 9
v -8 5 8
v -8 5 7
v -8 6 10
v -8 6 9
v -8 6 8
v -8 6 7
v -6 0 5
v -6 0 2
v -6 4 5
v -6 4 4
v -6 4 2
v -6 5 5
v -6 5 4
v -5 5 9
v -5 5 8
v -5 6 9
v -5 6 8
v -4 0 -8
v -4 0 -13
v -4 5 5
v -4 5 2
v -4 5 -8
v -4 5 -13
v -4 6 5
v -4 6 2
v -2 0 11
v -2 0 9
v -2 0 -2
v -2 0 -4
v -2 4 9
v -2 4 -2
v -2 5 11
v -2 5 -4
v -11 0 11
v -11 5 11
v -9 0 11
v -9 4 11
v -4 0 11
v -4 4 11
v -2 0 11
v -2 5 11
v -9 5 10
v -9 6 10
v -8 5 10
v -8 6 10
v -8 5 9
v -8 6 9
v -5 5 9
v -5 6 9
v -9 5 5
v -9 6 5
v -8 0 5
v -8 4 5
v -6 0 5
v -6 4 5
v -6 5 5
v -6 6 5
v -4 5 5
v -4 6 5
v -6 4 4
v -6 5 4
v -4 4 4
v -4 5 4
v -11 0 -2
v -11 4 -2
v -10 4 -2
v -9 0 -2
v -9 4 -2
v -4 0 -2
v -4 4 -2
v -3 4 -2
v -2 0 -2
v -2 4 -2
v -9 0 -8
v -9 5 -8
v -4 0 -8
v -4 5 -8
v -11 0 9
v -11 4 9
v -10 4 9
v -9 0 9
v -9 4 9
v -4 0 9
v -4 4 9
v -3 4 9
v -2 0 9
v -2 4 9
v -8 5 8
v -8 6 8
v -5 5 8
v -5 6 8
v -9 5 7
v -9 6 7
v -8 5 7
v -8 6 7
v -6 4 5
v -6 5 5
v -4 4 5
v -4 5 5
v -9 5 4
v -9 6 4
v -8 5 4
v -8 6 4
v -8 5 3
v -8 6 3
v -7 5 3
v -7 6 3
v -8 0 2
v -8 4 2
v -7 5 2
v -7 6 2
v -6 0 2
v -6 4 2
v -6 5 2
v -6 6 2
v -4 5 2
v -4 6 2
v -11 0 -4
v -11 5 -4
v -9 0 -4
v -9 4 -4
v -4 0 -4
v -4 4 -4
v -2 0 -4
v -2 5 -4
v -9 0 -13
v -9 5 -13
v -4 0 -13
v -4 5 -13
v -11 0 11
v -9 0 11
v -4 0 11
v -2 0 11
v -11 0 9
v -9 0 9
v -4 0 9
v -2 0 9
v -8 0 5
v -6 0 5
v -8 0 2
v -6 0 2
v -11 0 -2
v -9 0 -2
v -4 0 -2
v -2 0 -2
v -11 0 -4
v -9 0 -4
v -4 0 -4
v -2 0 -4
v -9 0 -8
v -4 0 -8
v -9 0 -13
v -4 0 -13
v -9 4 11
v -4 4 11
v -9 4 10
v -4 4 10
v -11 4 9
v -10 4 9
v -9 4 9
v -4 4 9
v -3 4 9
v -2 4 9
v -8 4 5
v -6 4 5
v -4 4 5
v -6 4 4
v -4 4 4
v -8 4 2
v -6 4 2
v -11 4 -2
v -10 4 -2
v -9 4 -2
v -4 4 -2
v -3 4 -2
v -2 4 -2
v -9 4 -3
v -4 4 -3
v -9 4 -4
v -4 4 -4
v -6 5 5
v -4 5 5
v -6 5 4
v -4 5 4
v -11 5 11
v -2 5 11
v -10 5 10
v -9 5 10
v -8 5 10
v -3 5 10
v -8 5 9
v -5 5 9
v -8 5 8
v -5 5 8
v -9 5 7
v -8 5 7
v -9 5 5
v -6 5 5
v -4 5 5
v -9 5 4
v -8 5 4
v -8 5 3
v -7 5 3
v -7 5 2
v -6 5 2
v -4 5 2
v -10 5 -3
v -3 5 -3
v -11 5 -4
v -2 5 -4
v -9 5 -8
v -4 5 -8
v -8 5 -9
v -7 5 -9
v -6 5 -9
v -5 5 -9
v -8 5 -10
v -7 5 -10
v -6 5 -10
v -5 5 -10
v -8 5 -11
v -7 5 -11
v -8 5 -12
v -6 5 -12
v -5 5 -12
v -9 5 -13
v -4 5 -13
v -9 6 10
v -8 6 10
v -8 6 9
v -5 6 9
v -8 6 8
v -5 6 8
v -9 6 7
v -8 6 7
v -9 6 5
v -6 6 5
v -4 6 5
v -9 6 4
v -8 6 4
v -6 6 4
v -5 6 4
v -8 6 3
v -7 6 3
v -6 6 3
v -5 6 3
v -7 6 2
v -6 6 2
v -4 6 2

# faces
f 5/5/1 2/5/1 1/5/1
f 6/5/1 4/5/1 3/5/1
f 7/5/1 5/5/1 1/5/1
f 7/5/1 6/5/1 5/5/1
f 8/5/1 4/5/1 6/5/1
f 8/5/1 6/5/1 7/5/1
f 15/5/1 10/5/1 9/5/1
f 16/5/1 10/5/1 15/5/1
f 17/7/1 12/7/1 11/7/1
f 18/7/1 12/7/1 17/7/1
f 19/7/1 14/7/1 13/7/1
f 20/7/1 14/7/1 19/7/1
f 23/5/1 22/5/1 21/5/1
f 24/5/1 22/5/1 23/5/1
f 27/7/1 26/7/1 25/7/1
f 28/7/1 26/7/1 27/7/1
f 31/7/1 30/7/1 29/7/1
f 32/7/1 30/7/1 31/7/1
f 37/5/1 34/5/1 33/5/1
f 38/5/1 34/5/1 37/5/1
f 39/5/1 34/5/1 38/5/1
f 42/5/1 36/5/1 35/5/1
f 43/5/1 36/5/1 42/5/1
f 44/5/1 36/5/1 43/5/1
f 45/4/1 41/4/1 40/4/1
f 46/4/1 41/4/1 45/4/1
f 47/5/2 48/5/2 51/5/2
f 51/5/2 48/5/2 52/5/2
f 52/5/2 48/5/2 53/5/2
f 49/5/2 50/5/2 54/5/2
f 54/5/2 50/5/2 55/5/2
f 55/5/2 50/5/2 56/5/2
f 57/7/2 58/7/2 61/7/2
f 61/7/2 58/7/2 62/7/2
f 59/7/2 60/7/2 63/7/2
f 63/7/2 60/7/2 64/7/2
f 65/5/2 66/5/2 67/5/2
f 67/5/2 66/5/2 68/5/2
f 68/5/2 66/5/2 69/5/2
f 67/4/2 68/4/2 70/4/2
f 70/4/2 68/4/2 71/4/2
f 72/6/2 73/6/2 74/6/2
f 74/6/2 73/6/2 75/6/2
f 76/5/2 77/5/2 80/5/2
f 80/5/2 77/5/2 81/5/2
f 78/6/2 79/6/2 82/6/2
f 82/6/2 79/6/2 83/6/2
f 84/5/2 85/5/2 88/5/2
f 86/5/2 87/5/2 89/5/2
f 84/5/2 88/5/2 90/5/2
f 88/5/2 89/5/2 90/5/2
f 89/5/2 87/5/2 91/5/2
f 90/5/2 89/5/2 91/5/2
f 94/5/3 93/5/3 92/5/3
f 95/5/3 93/5/3 94/5/3
f 97/5/3 93/5/3 95/5/3
f 98/5/3 97/5/3 96/5/3
f 99/5/3 93/5/3 97/5/3
f 99/5/3 97/5/3 98/5/3
f 102/7/3 101/7/3 100/7/3
f 103/7/3 101/7/3 102/7/3
f 106/6/3 105/6/3 104/6/3
f 107/6/3 105/6/3 106/6/3
f 112/5/3 111/5/3 110/5/3
f 113/5/3 111/5/3 112/5/3
f 114/7/3 109/7/3 108/7/3
f 115/7/3 109/7/3 114/7/3
f 116/6/3 115/6/3 114/6/3
f 117/6/3 115/6/3 116/6/3
f 120/4/3 119/4/3 118/4/3
f 121/4/3 119/4/3 120/4/3
f 124/5/3 123/5/3 122/5/3
f 125/5/3 124/5/3 122/5/3
f 126/5/3 124/5/3 125/5/3
f 129/5/3 128/5/3 127/5/3
f 130/5/3 129/5/3 127/5/3
f 131/5/3 129/5/3 130/5/3
f 134/5/3 133/5/3 132/5/3
f 135/5/3 133/5/3 134/5/3
f 136/5/4 137/5/4 138/5/4
f 136/5/4 138/5/4 139/5/4
f 139/5/4 138/5/4 140/5/4
f 141/5/4 142/5/4 143/5/4
f 141/5/4 143/5/4 144/5/4
f 144/5/4 143/5/4 145/5/4
f 146/6/4 147/6/4 148/6/4
f 148/6/4 147/6/4 149/6/4
f 150/7/4 151/7/4 152/7/4
f 152/7/4 151/7/4 153/7/4
f 154/4/4 155/4/4 156/4/4
f 156/4/4 155/4/4 157/4/4
f 158/7/4 159/7/4 160/7/4
f 160/7/4 159/7/4 161/7/4
f 162/7/4 163/7/4 164/7/4
f 164/7/4 163/7/4 165/7/4
f 166/5/4 167/5/4 170/5/4
f 170/5/4 167/5/4 171/5/4
f 168/7/4 169/7/4 172/7/4
f 172/7/4 169/7/4 173/7/4
f 172/6/4 173/6/4 174/6/4
f 174/6/4 173/6/4 175/6/4
f 176/5/4 177/5/4 178/5/4
f 178/5/4 177/5/4 179/5/4
f 179/5/4 177/5/4 181/5/4
f 180/5/4 181/5/4 182/5/4
f 181/5/4 177/5/4 183/5/4
f 182/5/4 181/5/4 183/5/4
f 184/5/4 185/5/4 186/5/4
f 186/5/4 185/5/4 187/5/4
f 192/5/5 189/5/5 188/5/5
f 193/5/5 189/5/5 192/5/5
f 194/5/5 191/5/5 190/5/5
f 195/5/5 191/5/5 194/5/5
f 198/5/5 197/5/5 196/5/5
f 199/5/5 197/5/5 198/5/5
f 204/5/5 201/5/5 200/5/5
f 205/5/5 201/5/5 204/5/5
f 206/5/5 203/5/5 202/5/5
f 207/5/5 203/5/5 206/5/5
f 210/5/5 209/5/5 208/5/5
f 211/5/5 209/5/5 210/5/5
f 214/5/5 213/5/5 212/5/5
f 215/5/5 213/5/5 214/5/5
f 218/4/5 215/4/5 214/4/5
f 219/4/5 215/4/5 218/4/5
f 222/4/5 219/4/5 218/4/5
f 222/4/5 218/4/5 217/4/5
f 222/4/5 220/4/5 219/4/5
f 223/4/5 220/4/5 222/4/5
f 224/4/5 220/4/5 223/4/5
f 226/4/5 220/4/5 224/4/5
f 227/4/5 222/4/5 217/4/5
f 228/4/5 226/4/5 225/4/5
f 229/5/5 217/5/5 216/5/5
f 230/4/5 228/4/5 227/4/5
f 230/5/5 217/5/5 229/5/5
f 230/4/5 227/4/5 217/4/5
f 231/4/5 228/4/5 230/4/5
f 232/4/5 226/4/5 228/4/5
f 232/4/5 228/4/5 231/4/5
f 232/4/5 220/4/5 226/4/5
f 233/5/5 221/5/5 220/5/5
f 233/4/5 220/4/5 232/4/5
f 234/5/5 221/5/5 233/5/5
f 235/4/5 232/4/5 231/4/5
f 236/4/5 232/4/5 235/4/5
f 237/5/5 236/5/5 235/5/5
f 238/5/5 236/5/5 237/5/5
f 241/6/5 240/6/5 239/6/5
f 242/6/5 240/6/5 241/6/5
f 243/5/6 244/5/6 245/5/6
f 245/5/6 244/5/6 246/5/6
f 246/5/6 244/5/6 247/5/6
f 247/5/6 244/5/6 248/5/6
f 247/4/6 248/4/6 249/4/6
f 249/4/6 248/4/6 250/4/6
f 250/4/6 248/4/6 252/4/6
f 245/4/6 246/4/6 253/4/6
f 251/4/6 252/4/6 254/4/6
f 245/4/6 253/4/6 255/4/6
f 253/4/6 254/4/6 255/4/6
f 254/4/6 252/4/6 256/4/6
f 255/4/6 254/4/6 256/4/6
f 252/4/6 248/4/6 257/4/6
f 256/4/6 252/4/6 257/4/6
f 245/4/6 255/4/6 258/4/6
f 258/4/6 259/4/6 260/4/6
f 260/4/6 261/4/6 262/4/6
f 257/4/6 248/4/6 264/4/6
f 243/5/6 245/5/6 265/5/6
f 263/4/6 264/4/6 265/4/6
f 262/4/6 263/4/6 265/4/6
f 245/4/6 258/4/6 265/4/6
f 260/4/6 262/4/6 265/4/6
f 258/4/6 260/4/6 265/4/6
f 264/4/6 248/4/6 266/4/6
f 265/4/6 264/4/6 266/4/6
f 248/5/6 244/5/6 266/5/6
f 243/5/6 265/5/6 267/5/6
f 265/5/6 266/5/6 267/5/6
f 266/5/6 244/5/6 268/5/6
f 267/5/6 266/5/6 268/5/6
f 269/5/6 270/5/6 271/5/6
f 271/5/6 270/5/6 272/5/6
f 272/5/6 270/5/6 273/5/6
f 273/5/6 270/5/6 274/5/6
f 269/5/6 271/5/6 275/5/6
f 271/1/6 272/1/6 275/1/6
f 272/2/6 273/2/6 276/2/6
f 275/1/6 272/1/6 276/1/6
f 273/4/6 274/4/6 277/4/6
f 276/2/6 273/2/6 277/2/6
f 274/5/6 270/5/6 278/5/6
f 277/4/6 274/4/6 278/4/6
f 275/3/6 276/3/6 279/3/6
f 269/5/6 275/5/6 279/5/6
f 276/4/6 277/4/6 280/4/6
f 279/3/6 276/3/6 280/3/6
f 269/5/6 279/5/6 281/5/6
f 279/4/6 280/4/6 281/4/6
f 280/4/6 277/4/6 282/4/6
f 281/4/6 280/4/6 282/4/6
f 277/1/6 278/1/6 282/1/6
f 278/5/6 270/5/6 283/5/6
f 282/1/6 278/1/6 283/1/6
f 269/5/6 281/5/6 284/5/6
f 281/5/6 282/5/6 284/5/6
f 282/5/6 283/5/6 284/5/6
f 283/5/6 270/5/6 285/5/6
f 284/5/6 283/5/6 285/5/6
f 286/7/6 287/7/6 288/7/6
f 286/7/6 288/7/6 290/7/6
f 288/6/6 289/6/6 290/6/6
f 290/6/6 289/6/6 291/6/6
f 286/7/6 290/7/6 292/7/6
f 292/7/6 290/7/6 293/7/6
f 294/7/6 295/7/6 297/7/6
f 297/7/6 295/7/6 298/7/6
f 295/6/6 296/6/6 299/6/6
f 298/7/6 295/7/6 299/7/6
f 299/6/6 296/6/6 300/6/6
f 298/7/6 299/7/6 301/7/6
f 299/7/6 300/7/6 301/7/6
f 301/7/6 300/7/6 302/7/6
f 302/7/6 300/7/6 303/7/6
f 300/6/6 296/6/6 304/6/6
f 303/7/6 300/7/6 304/7/6
f 302/7/6 303/7/6 305/7/6
f 303/6/6 304/6/6 306/6/6
f 305/7/6 303/7/6 306/7/6
f 304/6/6 296/6/6 307/6/6
f 306/6/6 304/6/6 307/6/6
